<svg id="Layer_1" data-name="Layer 1" xmlns="http://www.w3.org/2000/svg" viewBox="0 0 245.53 67.33"><defs><style>.cls-1{fill:#006838;}.cls-2{fill:#00a551;}</style></defs><path class="cls-1" d="M145.63,44.78v2h-7.32V35.49h7.15v2h-4.58v2.6H145V42h-4.13v2.77Z"/><path class="cls-1" d="M147,38.44h1.73l.4,1.13h0A3.58,3.58,0,0,1,152,38.28q2.55,0,2.55,3v5.53H152V41.62c0-1-.2-1.22-1-1.22a2.7,2.7,0,0,0-1.46.42v6H147Z"/><path class="cls-1" d="M155.76,42.62c0-2.9,1.4-4.34,4.12-4.34a5.5,5.5,0,0,1,2.13.37l-.46,2a2.5,2.5,0,0,0-1.36-.34c-1.48,0-1.86.47-1.86,2.36s.38,2.35,1.9,2.35a3,3,0,0,0,1.49-.35l.48,2.05a9.2,9.2,0,0,1-2.32.29C157.16,47,155.76,45.52,155.76,42.62Z"/><path class="cls-1" d="M171.39,38.44,168,47.6c-.82,2.22-1.58,2.93-3,2.93a3.74,3.74,0,0,1-1.55-.39l.45-2a1,1,0,0,0,.82.42c.5,0,.75-.3,1.12-1.24l.26-.69L163,38.44h2.71l1.51,5.34,1.51-5.34Z"/><path class="cls-1" d="M171.75,42.62c0-2.9,1.4-4.34,4.12-4.34a5.5,5.5,0,0,1,2.13.37l-.46,2a2.5,2.5,0,0,0-1.36-.34c-1.48,0-1.86.47-1.86,2.36s.38,2.35,1.9,2.35a3,3,0,0,0,1.49-.35l.48,2.05a9.2,9.2,0,0,1-2.32.29C173.15,47,171.75,45.52,171.75,42.62Z"/><path class="cls-1" d="M179.44,35.12H182V46.81h-2.52Z"/><path class="cls-1" d="M183.27,42.62c0-2.9,1.32-4.34,4-4.34s4,1.44,4,4.34-1.32,4.34-4,4.34S183.27,45.52,183.27,42.62Zm5.4,0c0-1.89-.28-2.36-1.41-2.36s-1.41.47-1.41,2.36.28,2.34,1.41,2.34S188.67,44.49,188.67,42.62Z"/><path class="cls-1" d="M200.32,42.62c0,2.93-1.06,4.38-3.09,4.38a2.64,2.64,0,0,1-2.09-.88v4.25h-2.51V38.44h1.73l.4,1.14h0a3.14,3.14,0,0,1,2.58-1.3C199.32,38.28,200.32,39.72,200.32,42.62Zm-2.56,0c0-1.85-.26-2.32-1.33-2.32a2.4,2.4,0,0,0-1.29.37v4a2.26,2.26,0,0,0,1.25.31C197.49,45,197.76,44.49,197.76,42.61Z"/><path class="cls-1" d="M208.46,43.42h-4.54c.13,1.27.62,1.62,2,1.62a4.61,4.61,0,0,0,2-.44l.43,2a8.51,8.51,0,0,1-2.58.4c-2.89,0-4.28-1.4-4.28-4.34s1.4-4.34,3.68-4.34C207.84,38.28,208.93,40,208.46,43.42Zm-3.33-3.3c-.88,0-1.17.33-1.23,1.68h2.33C206.32,40.45,206.09,40.12,205.13,40.12Z"/><path class="cls-1" d="M217.44,35.12V46.81h-1.73l-.4-1.05h0a3.31,3.31,0,0,1-2.56,1.2c-2,0-3-1.44-3-4.34s1-4.38,3.08-4.38a2.52,2.52,0,0,1,2.11.95V35.12ZM213.65,45a2.4,2.4,0,0,0,1.28-.36v-4a2.17,2.17,0,0,0-1.26-.36c-1.09,0-1.36.47-1.36,2.35S212.57,45,213.65,45Z"/><path class="cls-1" d="M219,36c0-1,.38-1.38,1.43-1.38s1.4.36,1.4,1.36-.38,1.4-1.42,1.4S219,37.06,219,36Zm.14,2.4h2.52v8.37h-2.52Z"/><path class="cls-1" d="M222.92,44.4c0-1.77.85-2.65,2.6-2.65a7.19,7.19,0,0,1,2.09.32v-.44c0-1.12-.35-1.46-1.51-1.46a4.17,4.17,0,0,0-2.12.61l-.48-1.91a7.43,7.43,0,0,1,2.92-.59c2.63,0,3.61,1,3.61,3.52v5h-1.71l-.41-1.08h0A3.21,3.21,0,0,1,225.23,47C223.68,47,222.92,46.11,222.92,44.4Zm4.69.24V43.43a6.42,6.42,0,0,0-1.2-.12c-.91,0-1.14.18-1.14.89s.21.89,1,.89A2,2,0,0,0,227.61,44.64Z"/><path class="cls-1" d="M234.82,43.87c0-2.06.94-3.09,2.84-3.09s2.84,1,2.84,3.09S239.56,47,237.66,47,234.82,45.94,234.82,43.87Zm3.85,0c0-1.35-.2-1.68-1-1.68s-1,.33-1,1.68.21,1.67,1,1.67S238.67,45.2,238.67,43.87Z"/><path class="cls-1" d="M243.6,40.89h1.55V42.2H243.6v4.65h-1.79V42.2h-.68V40.89h.68c0-1.64.8-2.45,2.33-2.45a3.91,3.91,0,0,1,1.39.24L245.21,40a1.54,1.54,0,0,0-.79-.2C243.79,39.83,243.61,40,243.6,40.89Z"/><path class="cls-1" d="M147.41,64.53v2.8h-9.1V52.79h3.35V64.53Z"/><path class="cls-1" d="M148.71,63.67V56.58h3.23v6.66c0,1.25.26,1.56,1.3,1.56a3.78,3.78,0,0,0,1.92-.48V56.58h3.22V67.33h-2.23L155.64,66h0A4.89,4.89,0,0,1,152,67.53C149.79,67.53,148.71,66.25,148.71,63.67Z"/><path class="cls-1" d="M169.85,52.32v15h-2.22L167.11,66h0a4.26,4.26,0,0,1-3.29,1.55c-2.53,0-3.83-1.85-3.83-5.58s1.35-5.62,3.95-5.62a3.28,3.28,0,0,1,2.71,1.21V52.32ZM165,64.94a3.08,3.08,0,0,0,1.64-.46V59.41A2.81,2.81,0,0,0,165,59c-1.4,0-1.74.6-1.74,3S163.6,64.94,165,64.94Z"/><path class="cls-1" d="M171.82,53.5c0-1.31.49-1.78,1.83-1.78s1.8.47,1.8,1.76-.49,1.8-1.82,1.8S171.82,54.8,171.82,53.5Zm.18,3.08h3.23V67.33H172Z"/><path class="cls-1" d="M176.92,62c0-3.72,1.8-5.57,5.3-5.57a7.06,7.06,0,0,1,2.73.48l-.59,2.49a3.33,3.33,0,0,0-1.75-.43c-1.9,0-2.39.6-2.39,3s.49,3,2.44,3a3.87,3.87,0,0,0,1.92-.45l.62,2.63a11.57,11.57,0,0,1-3,.38C178.72,67.53,176.92,65.68,176.92,62Z"/><path class="cls-1" d="M202.51,55.54h-3.76V67.33H195.4V55.54h-3.77V52.79h10.88Z"/><path class="cls-1" d="M210.72,63H204.9c.16,1.63.79,2.08,2.55,2.08a5.87,5.87,0,0,0,2.58-.57l.56,2.52a10.7,10.7,0,0,1-3.32.52c-3.71,0-5.49-1.81-5.49-5.58,0-3.59,1.79-5.57,4.73-5.57Q211.64,56.38,210.72,63Zm-4.27-4.25c-1.13,0-1.5.44-1.58,2.17h3C208,59.16,207.69,58.73,206.45,58.73Z"/><path class="cls-1" d="M212.65,56.58h2.22l.51,1.67h0a2.93,2.93,0,0,1,2.67-1.87,3.61,3.61,0,0,1,1,.14l-.46,3a3,3,0,0,0-1-.17,2.45,2.45,0,0,0-1.77.77v7.16h-3.22Z"/><path class="cls-1" d="M236.1,60.23v7.1h-3.22V60.67c0-1.11-.35-1.57-1.2-1.57a2.62,2.62,0,0,0-1.73.69c0,.14,0,.29,0,.44v7.1h-3.22V60.67c0-1.12-.34-1.57-1.21-1.57a2.73,2.73,0,0,0-1.71.67v7.56H220.6V56.58h2.24l.49,1.46h0a4.39,4.39,0,0,1,3.46-1.66,2.73,2.73,0,0,1,2.76,1.6,4.31,4.31,0,0,1,3.38-1.6C235.06,56.38,236.1,57.66,236.1,60.23Z"/><path class="cls-1" d="M237.8,66.87l.55-2.52a6.19,6.19,0,0,0,2.81.68c1,0,1.25-.18,1.25-.9s-.26-.83-1.95-1.43a3.06,3.06,0,0,1-2.4-3.23c0-2.07,1.27-3.09,3.84-3.09A8.06,8.06,0,0,1,245,57l-.56,2.38a5.54,5.54,0,0,0-2.33-.55c-.77,0-1,.16-1,.8s.29.74,1.8,1.27c1.84.66,2.59,1.51,2.59,3.27,0,2.2-1.31,3.4-3.93,3.4A9.9,9.9,0,0,1,237.8,66.87Z"/><rect class="cls-1" x="-0.01" y="9.88" width="8.04" height="8.04"/><rect class="cls-1" y="19.75" width="8.04" height="8.04"/><rect class="cls-1" y="29.66" width="8.04" height="8.04"/><rect class="cls-1" y="39.53" width="8.04" height="8.04"/><rect class="cls-1" y="49.41" width="8.04" height="8.04"/><rect class="cls-1" x="9.88" y="29.66" width="8.04" height="8.04"/><rect class="cls-1" x="19.76" y="29.66" width="8.04" height="8.04"/><rect class="cls-1" width="8.04" height="8.04"/><rect class="cls-1" x="9.88" width="8.04" height="8.04"/><rect class="cls-1" x="19.76" width="8.04" height="8.04"/><rect class="cls-1" x="29.64" width="8.04" height="8.04"/><rect class="cls-1" x="39.52" width="8.04" height="8.04"/><rect class="cls-1" y="59.29" width="8.04" height="8.04"/><rect class="cls-1" x="9.88" y="59.29" width="8.04" height="8.04"/><rect class="cls-1" x="19.76" y="59.29" width="8.04" height="8.04"/><rect class="cls-1" x="29.64" y="59.29" width="8.04" height="8.04"/><rect class="cls-1" x="39.52" y="59.29" width="8.04" height="8.04"/><rect class="cls-1" x="49.39" y="59.29" width="8.04" height="8.04"/><rect class="cls-1" x="59.27" y="59.29" width="8.04" height="8.04"/><rect class="cls-1" x="69.15" y="59.29" width="8.04" height="8.04"/><rect class="cls-2" x="39.52" y="19.78" width="8.04" height="8.04"/><rect class="cls-2" x="39.52" y="29.66" width="8.04" height="8.04"/><rect class="cls-2" x="39.52" y="49.41" width="8.04" height="8.04"/><rect class="cls-2" x="39.52" y="39.53" width="8.04" height="8.04"/><rect class="cls-2" x="49.39" y="19.78" width="8.04" height="8.04"/><rect class="cls-2" x="49.39" y="49.41" width="8.04" height="8.04"/><rect class="cls-2" x="59.27" y="19.78" width="8.04" height="8.04"/><rect class="cls-2" x="69.15" y="19.78" width="8.04" height="8.04"/><rect class="cls-2" x="69.15" y="29.66" width="8.04" height="8.04"/><rect class="cls-2" x="69.15" y="39.53" width="8.04" height="8.04"/><rect class="cls-2" x="59.27" y="49.41" width="8.04" height="8.04"/><rect class="cls-2" x="69.15" y="49.41" width="8.04" height="8.04"/><rect class="cls-1" x="83.98" y="59.29" width="8.04" height="8.04"/><rect class="cls-1" x="93.85" y="59.29" width="8.04" height="8.04"/><rect class="cls-1" x="103.73" y="59.29" width="8.04" height="8.04"/><rect class="cls-1" x="113.6" y="59.29" width="8.04" height="8.04"/><rect class="cls-1" x="123.48" y="59.29" width="8.04" height="8.04"/><rect class="cls-1" x="83.98" y="49.41" width="8.04" height="8.04"/><rect class="cls-1" x="83.98" y="39.54" width="8.04" height="8.04"/><rect class="cls-1" x="83.98" y="29.66" width="8.04" height="8.04"/><rect class="cls-1" x="83.98" y="19.75" width="8.04" height="8.04"/><rect class="cls-1" x="83.98" y="9.88" width="8.04" height="8.04"/><rect class="cls-1" x="83.98" width="8.04" height="8.04"/><rect class="cls-2" x="133.27" width="8.04" height="8.04"/><rect class="cls-2" x="123.4" width="8.04" height="8.04"/><rect class="cls-2" x="113.7" width="8.04" height="8.04"/><rect class="cls-2" x="103.82" width="8.04" height="8.04"/><rect class="cls-2" x="143.15" width="8.04" height="8.04"/><rect class="cls-2" x="123.4" y="9.88" width="8.04" height="8.04"/><rect class="cls-2" x="123.4" y="19.75" width="8.04" height="8.04"/><rect class="cls-2" x="123.4" y="29.66" width="8.04" height="8.04"/><rect class="cls-2" x="123.4" y="39.53" width="8.04" height="8.04"/><rect class="cls-2" x="123.4" y="49.41" width="8.04" height="8.04"/></svg>